<svg version="1.1" xmlns="http://www.w3.org/2000/svg" viewBox="0 0 734.31640625 865.7900390625">
  <defs>
    <style>
      @font-face {
        font-family: "Virgil";
        src: url("https://excalidraw.com/FG_Virgil.ttf");
      }
      @font-face {
        font-family: "Cascadia";
        src: url("https://excalidraw.com/Cascadia.ttf");
      }
    </style>
  </defs>
  <rect x="0" y="0" width="734.31640625" height="865.7900390625" fill="#ffffff"></rect><g transform="translate(10 62.1796875) rotate(0 104.5 12.5)"><text x="0" y="18" font-family="Virgil" font-size="20px" fill="#000000">Read the requirement</text></g><g transform="translate(34.94921875 828.8203125) rotate(0 106 12.5)"><text x="0" y="18" font-family="Virgil" font-size="20px" fill="#000000">Implementing the code</text></g><g><g transform="translate(111.14453125 95.328125) rotate(0 -0.43402786038817 360.12626114986836)"><path d="M0.5585692942142486 1.0984010159969329 C0.5751580774784087 121.35503712693848, -0.5066326558589935 600.6324648638566, -0.6462755620479583 720.6292193830013 M0.08915877655148496 -0.3766970832645893 C-0.2435175721347333 119.49275465096038, -1.0999336211383341 599.4815698647996, -1.4266250149905682 719.7207763902843" style="stroke: rgb(0, 0, 0); stroke-width: 2; fill: none;"></path></g><g transform="translate(111.14453125 95.328125) rotate(0 -0.43402786038817 360.12626114986836)"><path d="M-9.794577310097837 691.6999199861586 C-9.816725709166848 698.9745985907064, -6.641476228016194 705.503383686249, -0.8757332281768322 719.8182176761329 M-12.231404597175741 691.6099454486668 C-8.442125750803608 698.4903964847811, -6.8527822123206885 708.0103076466266, -1.6042375133931637 720.187865998596" style="stroke: rgb(0, 0, 0); stroke-width: 2; fill: none;"></path></g><g transform="translate(111.14453125 95.328125) rotate(0 -0.43402786038817 360.12626114986836)"><path d="M10.726581725459704 691.7450223496852 C5.823832028720819 699.1044941324442, 4.118137961454363 705.6225516618737, -0.8757332281768322 719.8182176761329 M8.2897544383818 691.6550478121934 C6.345268067983433 698.3939028595108, 2.2006825162309642 707.9012117237077, -1.6042375133931637 720.187865998596" style="stroke: rgb(0, 0, 0); stroke-width: 2; fill: none;"></path></g></g><g transform="translate(396.78125 65.96484375) rotate(0 139.5 12.5)"><text x="0" y="18" font-family="Virgil" font-size="20px" fill="#000000">Read/Listen the requirement</text></g><g transform="translate(458.44140625 159.66015625) rotate(0 66.5 12.5)"><text x="0" y="18" font-family="Virgil" font-size="20px" fill="#000000">Ask questions</text></g><g transform="translate(366.87890625 254.0546875) rotate(0 174 12.5)"><text x="0" y="18" font-family="Virgil" font-size="20px" fill="#000000">Write some example of input/output</text></g><g transform="translate(358.1796875 358.3046875) rotate(0 176.5 12.5)"><text x="0" y="18" font-family="Virgil" font-size="20px" fill="#000000">Write a brute force + Walk through</text></g><g transform="translate(356.31640625 463.890625) rotate(0 184 12.5)"><text x="0" y="18" font-family="Virgil" font-size="20px" fill="#000000">Optimise your solution + Walk through</text></g><g transform="translate(486.53125 588.04296875) rotate(0 51.5 12.5)"><text x="0" y="18" font-family="Virgil" font-size="20px" fill="#000000">Write code</text></g><g><g transform="translate(517.390625 94.71484375) rotate(0 0.024126981720371532 32.909583526849744)"><path d="M0.7576823651790618 0.4854495584964753 C0.6984879910945891 11.470979585250218, -0.44352803826332093 54.6438722829024, -0.4643618166446686 65.33371749520302 M-0.7094284017384052 1.8016196854412558 C-0.7414326103031634 12.203629514326652, 0.808141016215086 52.23080101008217, 0.7238359348475933 62.807379778176546" style="stroke: rgb(0, 0, 0); stroke-width: 2; fill: none;"></path></g><g transform="translate(517.390625 94.71484375) rotate(0 0.024126981720371532 32.909583526849744)"><path d="M-9.22049527851432 34.026942539404246 C-5.718730602246396 43.934549231280116, -3.772552994953579 52.02812569967126, 1.1558805303275586 62.032048191577196 M-10.69365377215236 35.19329613764128 C-5.26165749989326 46.84097593331063, -0.9522023209118302 57.5012170845947, 1.4792742179334164 62.56874261394143" style="stroke: rgb(0, 0, 0); stroke-width: 2; fill: none;"></path></g><g transform="translate(517.390625 94.71484375) rotate(0 0.024126981720371532 32.909583526849744)"><path d="M11.297557392835941 33.667057889084504 C8.828875145093296 43.80890654750583, 4.806343659364556 52.00717359346829, 1.1558805303275586 62.032048191577196 M9.824398899197902 34.83341148732154 C7.082417738609572 46.42989190631278, 3.2164720014523063 57.233528795343275, 1.4792742179334164 62.56874261394143" style="stroke: rgb(0, 0, 0); stroke-width: 2; fill: none;"></path></g></g><g><g transform="translate(517.1953125 194.62109375) rotate(0 0.3249494623034934 30.446979623585932)"><path d="M-0.8199274599552154 -0.3184194982051849 C-1.0132954180240632 9.838881768782935, -1.1036451876163482 50.25317461291949, -0.8275978624820709 60.35561137795448 M-0.6024959094822406 -0.7200466172397137 C-0.5924937398731708 9.806687790503105, 1.6065545265376566 51.19357654089729, 1.6497392217814921 61.614005864411595" style="stroke: rgb(0, 0, 0); stroke-width: 2; fill: none;"></path></g><g transform="translate(517.1953125 194.62109375) rotate(0 0.3249494623034934 30.446979623585932)"><path d="M-10.019599028562144 32.379143083146026 C-7.602477130404769 44.35725301371606, -4.051167424650158 53.82947659110431, -0.04031605914235126 60.955540389567616 M-9.676543437574939 34.015575626542976 C-5.726525439877035 40.67387789688414, -3.4851895003481674 49.21437909305785, 2.0869778703153132 61.5608092404902" style="stroke: rgb(0, 0, 0); stroke-width: 2; fill: none;"></path></g><g transform="translate(517.1953125 194.62109375) rotate(0 0.3249494623034934 30.446979623585932)"><path d="M10.491538962195495 31.736320627145787 C6.183651309662935 43.784947675883295, 3.0131023459051534 53.467835415385295, -0.04031605914235126 60.955540389567616 M10.8345945531827 33.37275317054274 C9.444114020746895 40.23021364695611, 6.339156405998308 48.93826856709225, 2.0869778703153132 61.5608092404902" style="stroke: rgb(0, 0, 0); stroke-width: 2; fill: none;"></path></g></g><g><g transform="translate(520.796875 291.103515625) rotate(0 0.18679412504729953 30.41193298697472)"><path d="M-1.0943752706050873 -0.188687378168106 C-1.272354358434677 10.004769208033878, -0.4578926503658294 50.573900232712425, -0.12843155264854422 61.012553352117536 M0.3055997116863729 1.8036828128993512 C0.26483040645718586 11.910555303146442, 1.354496205598116 50.536366468320296, 1.4930614645779134 60.18198789045215" style="stroke: rgb(0, 0, 0); stroke-width: 2; fill: none;"></path></g><g transform="translate(520.796875 291.103515625) rotate(0 0.18679412504729953 30.41193298697472)"><path d="M-9.692733939908264 32.00698970277159 C-5.832769930337184 44.36809848721624, 0.6641701331734087 55.37380700254681, 0.991152119189501 60.51597664639354 M-8.756948273800132 31.31687840838282 C-5.711989092519832 42.734063755527394, -0.3977976073671208 54.15856732834784, 1.6739875937998296 59.66717156156898" style="stroke: rgb(0, 0, 0); stroke-width: 2; fill: none;"></path></g><g transform="translate(520.796875 291.103515625) rotate(0 0.18679412504729953 30.41193298697472)"><path d="M10.823620338802188 31.560660792349356 C6.921964826181819 43.9035050401354, 5.65783653224768 55.07805394185398, 0.991152119189501 60.51597664639354 M11.75940600491032 30.870549497960585 C6.630969506610477 42.33669177422049, 3.7681238012722327 53.93908504665006, 1.6739875937998296 59.66717156156898" style="stroke: rgb(0, 0, 0); stroke-width: 2; fill: none;"></path></g></g><g><g transform="translate(527.54296875 399.970703125) rotate(0 0.41122788425985846 30.422142833471298)"><path d="M-0.9406507909297943 -0.5543289721012116 C-1.153767818212509 9.495652272303898, -0.6450495183467865 51.12472592393557, -0.4138122975826263 61.39861463904381 M-0.06725256130099289 0.07161343976855283 C0.2351310570538045 9.963260252525409, 1.9224639399349692 49.84687064255277, 1.8123510678112509 60.350425566881896" style="stroke: rgb(0, 0, 0); stroke-width: 2; fill: none;"></path></g><g transform="translate(527.54296875 399.970703125) rotate(0 0.41122788425985846 30.422142833471298)"><path d="M-9.906540939251709 31.67024446885881 C-4.598859995076417 43.60371137304437, -1.098334489149428 53.271498027393235, 2.9058425326645376 60.276925499886275 M-9.380435162822533 33.322178481629464 C-4.807003819183745 40.05479721704084, -2.4914450628757754 49.94723955049709, 1.4316073705255987 59.47141389116645" style="stroke: rgb(0, 0, 0); stroke-width: 2; fill: none;"></path></g><g transform="translate(527.54296875 399.970703125) rotate(0 0.41122788425985846 30.422142833471298)"><path d="M10.61095441802249 31.279877141753634 C8.288179830550398 43.19775798754603, 4.154675578250078 53.01079023546605, 2.9058425326645376 60.276925499886275 M11.137060194451667 32.93181115452428 C9.4788177858941 39.673012576726364, 5.558836764638951 49.68409273383696, 1.4316073705255987 59.47141389116645" style="stroke: rgb(0, 0, 0); stroke-width: 2; fill: none;"></path></g></g><g><g transform="translate(535.25390625 512.607421875) rotate(0 0.19836114384236225 30.843569225072855)"><path d="M0.34798141121864323 -0.1892990648746491 C0.18164172768592837 10.24984233578046, -0.636300128698349 51.46651364366213, -0.8551605641841888 61.87643751502037 M0.12331193760037418 1.2305399076640606 C0.21109350517392156 11.086593458702168, 1.1143321497738363 50.62722777451078, 1.251882851868868 60.70917381212115" style="stroke: rgb(0, 0, 0); stroke-width: 2; fill: none;"></path></g><g transform="translate(535.25390625 512.607421875) rotate(0 0.19836114384236225 30.843569225072855)"><path d="M-9.848206565721927 31.28939607409663 C-5.438508584303402 39.806423295779524, -1.4183805613434295 50.93928836967422, 2.9708473391830923 60.84394095703959 M-9.014338643296657 32.92787946430869 C-5.241566638181191 42.21051336167408, -0.5081566089603236 52.66635606659871, 0.7513958074152471 61.69905099138617" style="stroke: rgb(0, 0, 0); stroke-width: 2; fill: none;"></path></g><g transform="translate(535.25390625 512.607421875) rotate(0 0.19836114384236225 30.843569225072855)"><path d="M10.669432673317122 30.90666582642246 C8.677127513147944 39.60256706081222, 6.297671284414809 50.85480817193647, 2.9708473391830923 60.84394095703959 M11.503300595742392 32.54514921663452 C7.743739268966027 41.898504287911905, 4.942197750808971 52.49490185094387, 0.7513958074152471 61.69905099138617" style="stroke: rgb(0, 0, 0); stroke-width: 2; fill: none;"></path></g></g><g transform="translate(518.859375 706.6376953125) rotate(0 22.5 12.5)"><text x="0" y="18" font-family="Virgil" font-size="20px" fill="#000000">Test</text></g><g transform="translate(507.07421875 830.7900390625) rotate(0 32 12.5)"><text x="0" y="18" font-family="Virgil" font-size="20px" fill="#000000">Debug</text></g><g><g transform="translate(533.1640625 626.0185546875) rotate(0 -0.6381748471408741 30.6270222246647)"><path d="M-0.35810227990150445 -1.1551531255245209 C-0.45280080437660214 9.074377145369848, -1.2388170778751373 52.170859930912655, -1.19652219414711 62.4091975748539 M-0.07982750013470641 0.6267409975826741 C-0.38400288179516784 10.698898073782523, -0.20611947134137165 50.007024922321236, -0.14530568674206745 59.84122652366757" style="stroke: rgb(0, 0, 0); stroke-width: 2; fill: none;"></path></g><g transform="translate(533.1640625 626.0185546875) rotate(0 -0.6381748471408741 30.6270222246647)"><path d="M-12.460984811645332 29.703833799911532 C-5.925342214819324 38.52450954671283, -6.90947526306253 47.50353991166847, -0.7919897671043874 59.753983354121445 M-10.379961729508224 30.769031640244517 C-7.124868052092108 41.3514952284678, -3.5266731106977156 51.014154197544656, 0.09069719061255443 59.93611930862069" style="stroke: rgb(0, 0, 0); stroke-width: 2; fill: none;"></path></g><g transform="translate(533.1640625 626.0185546875) rotate(0 -0.6381748471408741 30.6270222246647)"><path d="M8.060005831014273 29.60925351805304 C9.514662599875981 38.392112592657625, 3.448730320673601 47.39456473154134, -0.7919897671043874 59.753983354121445 M10.14102891315138 30.674451358386026 C6.53694449875071 41.121354515117325, 3.276036446977537 50.81562676766996, 0.09069719061255443 59.93611930862069" style="stroke: rgb(0, 0, 0); stroke-width: 2; fill: none;"></path></g></g><g><g transform="translate(536.296875 755.3544921875) rotate(0 -0.20681920073923266 30.21028213165704)"><path d="M-1.1551531255245209 -1.19652219414711 C-1.1476280629634856 9.06777789791425, 1.0608338892459868 50.622693834702176, 1.077166324853897 61.22769827246666 M0.6267409975826741 -0.14530568674206745 C0.4768928654491902 10.13751330619057, -1.1030011193454266 51.382994118581216, -1.490804726332426 61.61708645746112" style="stroke: rgb(0, 0, 0); stroke-width: 2; fill: none;"></path></g><g transform="translate(536.296875 755.3544921875) rotate(0 -0.20681920073923266 30.21028213165704)"><path d="M-12.675814722885852 34.85489391021015 C-7.393056690936923 42.409380369882186, -1.835716294825656 54.54784842462753, -1.5780478958785533 62.30204929634929 M-11.610616882552867 33.01984462372543 C-8.067984900159992 41.471232217262866, -5.127869537102211 49.962280982973446, -1.3959119413793086 62.18670892938972" style="stroke: rgb(0, 0, 0); stroke-width: 2; fill: none;"></path></g><g transform="translate(536.296875 755.3544921875) rotate(0 -0.20681920073923266 30.21028213165704)"><path d="M7.830813215221768 35.62833621178375 C5.200293702640054 42.68687045374205, 2.8420484587909645 54.526788752079284, -1.5780478958785533 62.30204929634929 M8.896011055554753 33.79328692529903 C6.455782241170202 42.050725854206355, 3.4067359799165047 50.31588321713805, -1.3959119413793086 62.18670892938972" style="stroke: rgb(0, 0, 0); stroke-width: 2; fill: none;"></path></g></g><g transform="translate(26.1328125 10.328125) rotate(0 89.5 12.5)"><text x="0" y="18" font-family="Virgil" font-size="20px" fill="#c92a2a">WHAT TO NO DO</text></g><g transform="translate(461.84765625 10) rotate(0 71 12.5)"><text x="0" y="18" font-family="Virgil" font-size="20px" fill="#5c940d">WHAT TO DO</text></g></svg>